<svg id="JUNGLE_Logo_Black" xmlns="http://www.w3.org/2000/svg" viewBox="0 0 2746.67 3733.45"><defs><style>.cls-1{fill:#1d1d1b;}</style></defs><title>JUNGLE_Logo_Black</title><g id="Wordmark"><g id="JUNGLE_wordmark_black"><path id="Letter_E" class="cls-1" d="M4098.46,4366.56a58.94,58.94,0,0,0-58.94-59h-124.4c-20.22,0-31.38.82-31.38.82-113.75,8-173.35,78.58-174.71,212.09-1.28,100.85,28.35,169.27,88.43,203.66,27.85,19.25,78.26,26.24,131.26,27,60.46.85,114.79.43,159.72-.49-9-68.43-47.05-89-89.68-91.05-32.62-1.55-68.9-.82-102.53-3.41-45.86-3.55-76.21-17.54-92-78.32-7.25-28-8.31-84.41,3.62-113,21.56-51.57,67.63-63.25,100.72-62.89h85.65a14.79,14.79,0,0,1,14.45,18.19c-6.34,26.1-26.17,61.06-52.93,69.11,0,0,0,0,0,0-3.75,1.86-29.16,3.65-39.67,3.65l-20.45,0h-4.45c-18.16.5-33.64,7.43-45.28,15.71-8.71,6.19-17.59,15-24.54,34.58-2.54,7.13-3.81,15-4.69,26.29,19,0,96.95.25,96.95.25s46.62-.74,55.39-1.94a23,23,0,0,0,4.28-.9c72.41-13.8,124.67-89.86,125.25-163,0-1.17,0-.3,0-2.49C4098.47,4399.81,4098.46,4384.41,4098.46,4366.56Z" transform="translate(-1626.67 -1189)"/><path id="Letter_L" class="cls-1" d="M3544.86,4175.39v635.3a108.22,108.22,0,0,0,107.8-108.21V4283.61A108.23,108.23,0,0,0,3544.86,4175.39Z" transform="translate(-1626.67 -1189)"/><path id="Letter_G" class="cls-1" d="M3485.74,4480.43c-11.6-219.19-269.42-189-331.69-132-56.83,44.86-71.54,127.11-67.36,205.14,4.18,86.19,30.94,177.59,134.4,194.56,13.66,2.06,19.4,3.12,33.36,2.69h107.79a94.66,94.66,0,0,0-10.59-43.93c-15.25-29.14-40.78-48.34-79.24-50.54-68.95-3.94-89.64-53.34-92.08-108-3.62-81.17,15.77-104.05,29.32-118.94,24.49-26.9,68.21-35.1,108.67-21.39,67.32,24.42,61.27,114.9,60.88,151.75v128.45c.11-.16.41,56.4-.85,72.81-1.23,15.75-9.75,33.78-22.07,47a0,0,0,0,1,0,0c-20.74,26-86.12,34.33-125.2,4.38a121.08,121.08,0,0,0-73.92-24.71H3098q2.24,7.89,4.85,15.31c.61,1.75,1.24,3.47,1.9,5.19,39.06,112.84,165.09,136.39,286.64,95.6,48-18.06,91.48-56.77,94.82-134.61C3486.57,4747.93,3487.24,4497.47,3485.74,4480.43Z" transform="translate(-1626.67 -1189)"/><path id="Letter_N" class="cls-1" d="M2854.34,4307.61c-122.38,0-184,60.78-184,183.17V4750.7h0a109.39,109.39,0,0,0,109.39-109.38V4468.89c.81-44.57,25.12-66.46,72.94-66.46s72.14,21.89,74.57,66.46v281.77A109.32,109.32,0,0,0,3035.89,4642V4490.78C3036.7,4368.39,2976.73,4307.61,2854.34,4307.61Z" transform="translate(-1626.67 -1189)"/><path id="Letter_U" class="cls-1" d="M2508.26,4312v281.73c0,47.82-24.31,71.32-72.94,71.32s-72.94-23.5-72.94-71.32V4416.38A108.24,108.24,0,0,0,2254.58,4312v259.86c0,72.13,18.64,119.14,55.92,142.64,37.29,24.32,77,36.48,121.58,36.48,46.2,0,88.34-11.35,126.43-33.24A93.72,93.72,0,0,0,2578.7,4701c24.51-26.82,36.55-69.87,36.55-129.14V4420.19A108.22,108.22,0,0,0,2508.26,4312Z" transform="translate(-1626.67 -1189)"/><path id="Letter_J" class="cls-1" d="M2078.72,4175.39v419.94c0,42.15-20.26,63.22-61.59,63.22q-28.28,0-44.44-10.43h0c-14.73-9.5-22-25.48-22-47.93V4438.57h-.09a105.93,105.93,0,0,0-105.93,105.93c0,.71,0,1.41,0,2.11a1.62,1.62,0,0,0,0,.22c0,.21,0,.41,0,.61v.14c1.32,53.12,3.38,103.51,6.29,110.16,19.45,65.65,88.35,93.21,167.78,93.21,81.86,0,147.51-27.56,166.15-98.07,4-21.08,6.48-47,6.48-76.19V4288.28A112.9,112.9,0,0,0,2078.72,4175.39Z" transform="translate(-1626.67 -1189)"/></g></g><g id="Cloud_Forest_Shapes"><path id="Cluod_05" class="cls-1" d="M2785.86,3352.7a304.87,304.87,0,0,0,39.18,26.35,150,150,0,0,1-204.19,42.7l-443.17-279.54a150,150,0,1,1,160.05-253.74l79.4,50.08a252.41,252.41,0,0,0-7.83,32.74,191.52,191.52,0,0,0-3.16,28.19c0,.44,0,.89,0,1.33,0,.14,0,.28,0,.41v.29a192.44,192.44,0,0,0,89.73,168.23l136.55,86.13Z" transform="translate(-1626.67 -1189)"/><path id="Cloud_04" class="cls-1" d="M3215.75,3263.26,3169.36,3234h0c11.11-32.4,14.71-69.72,14.71-108.35,0-118.38-96-214.36-214.36-214.36a213.51,213.51,0,0,0-141.54,53.39v0a174.85,174.85,0,0,0-327.74-20.87,172.9,172.9,0,0,0-12.34,41.46v0a111.27,111.27,0,0,0-2,17.56c0,.07,0,.15,0,.23a112.42,112.42,0,0,0,52.42,99L2675,3188.21l157.33,99.24.07.05a228.16,228.16,0,0,0,47.55,30h0l8.78,5.54,36.4,23,170.54,107.57a112.5,112.5,0,1,0,120-190.3Z" transform="translate(-1626.67 -1189)"/><path id="Cloud_03" class="cls-1" d="M2534,2531a229.65,229.65,0,0,1,151.72-103.26l-147.31-92.91c-26.1-16.47-51.76-24.12-75.64-24.12-34.89,0-66,16.33-89.1,45.39-19.35,24.3-28.67,63.44-26.26,92.17l-50.75-32a112.5,112.5,0,0,0-120,190.31L2504,2813a254.61,254.61,0,0,1,38.12-24.6c-.79-1.09-1.57-2.18-2.34-3.29A229.84,229.84,0,0,1,2534,2531Z" transform="translate(-1626.67 -1189)"/><path id="Cloud_02" class="cls-1" d="M3594.1,2962.3l-68.93-45c17.91-135.87-49.92-281.41-184.28-373.66-76.78-52.72-163.21-78.3-245.62-78.3-90.86,0-176.84,31.06-239.79,91.08l-46.89-29.58a150,150,0,0,0-184,235,256.94,256.94,0,0,1,35.92-2.51,254.72,254.72,0,0,1,197.61,94,294.27,294.27,0,0,1,406,272.39q0,23.11-1.59,44l24.22,15.37,120.69,73.33a175,175,0,0,0,186.72-296Z" transform="translate(-1626.67 -1189)"/><path id="Cloud_01" class="cls-1" d="M3873.75,2572.16a250,250,0,0,0-110.46-156.24l-102.75-64.81c16.06-19.69,28.4-43.42,36.39-71.11,53.18-184.19,10-332.57-173-451.89-79.38-51.77-166.82-76.37-247.29-76.37-95.46,0-181.12,34.6-231.94,99.48-85.37-65.83-166.6-94.72-238.76-94.72-85.15,0-157.68,40.2-209.55,107.35a316.1,316.1,0,0,0-25.9,39.07l-40.42-25.49a150,150,0,0,0-160,253.74L2869.19,2446c65.74-39.53,143.55-60.71,226.08-60.71a498.11,498.11,0,0,1,148.81,23,531.25,531.25,0,0,1,142.09,69.32c76.64,52.62,137.47,122.29,175.93,201.48,30.65,63.13,46.22,130.24,45.91,196.69l1,.67q10.41.89,20.89.88a250,250,0,0,0,243.83-305.21Z" transform="translate(-1626.67 -1189)"/></g><g id="Ring"><g id="Ellipse"><path class="cls-1" d="M3000,1389a1183,1183,0,0,1,236.68,23.84,1165.63,1165.63,0,0,1,419.2,176.43,1177.43,1177.43,0,0,1,425.33,516.41,1165.65,1165.65,0,0,1,68.28,220,1186.78,1186.78,0,0,1,0,473.36,1165.58,1165.58,0,0,1-176.43,419.21,1177.26,1177.26,0,0,1-516.41,425.32,1165.68,1165.68,0,0,1-220,68.29,1186.78,1186.78,0,0,1-473.36,0,1166.1,1166.1,0,0,1-419.2-176.43A1177.43,1177.43,0,0,1,1918.79,3019a1165.52,1165.52,0,0,1-68.28-220,1186.78,1186.78,0,0,1,0-473.36,1165.63,1165.63,0,0,1,176.43-419.2,1177.43,1177.43,0,0,1,516.41-425.33,1166.38,1166.38,0,0,1,220-68.28A1183,1183,0,0,1,3000,1389m0-200c-758.47,0-1373.33,614.86-1373.33,1373.33S2241.53,3935.67,3000,3935.67,4373.33,3320.8,4373.33,2562.33,3758.47,1189,3000,1189Z" transform="translate(-1626.67 -1189)"/></g></g></svg>