<svg id="JUNGLE_wordmark_Color" xmlns="http://www.w3.org/2000/svg" xmlns:xlink="http://www.w3.org/1999/xlink" viewBox="0 0 2253.89 747.05"><defs><style>.cls-1{fill:url(#linear-gradient);}</style><linearGradient id="linear-gradient" x1="2971.59" y1="4175.39" x2="2971.59" y2="4922.45" gradientUnits="userSpaceOnUse"><stop offset="0.15" stop-color="#00a8d0"/><stop offset="1" stop-color="#0b4d98"/></linearGradient></defs><title>Jungle_wordmark_color</title><path id="wordmark_color" class="cls-1" d="M2078.72,4175.39v419.94c0,42.15-20.26,63.22-61.59,63.22q-28.28,0-44.44-10.43h0c-14.73-9.5-22-25.48-22-47.93V4438.57h-.09a105.93,105.93,0,0,0-105.93,105.93c0,.71,0,1.41,0,2.11a1.62,1.62,0,0,0,0,.22c0,.21,0,.41,0,.61v.14c1.32,53.12,3.38,103.51,6.29,110.16,19.45,65.65,88.35,93.21,167.78,93.21,81.86,0,147.51-27.56,166.15-98.07,4-21.08,6.48-47,6.48-76.19V4288.28A112.9,112.9,0,0,0,2078.72,4175.39ZM2508.26,4312v281.73c0,47.82-24.31,71.32-72.94,71.32s-72.94-23.5-72.94-71.32V4416.38A108.24,108.24,0,0,0,2254.58,4312v259.86c0,72.13,18.64,119.14,55.92,142.64,37.29,24.32,77,36.48,121.58,36.48,46.2,0,88.34-11.35,126.43-33.24A93.72,93.72,0,0,0,2578.7,4701c24.51-26.82,36.55-69.87,36.55-129.14V4420.19A108.22,108.22,0,0,0,2508.26,4312Zm346.08-4.37c-122.38,0-184,60.78-184,183.17V4750.7h0a109.39,109.39,0,0,0,109.39-109.38V4468.89c.81-44.57,25.12-66.46,72.94-66.46s72.14,21.89,74.57,66.46v281.77A109.32,109.32,0,0,0,3035.89,4642V4490.78C3036.7,4368.39,2976.73,4307.61,2854.34,4307.61Zm690.52-132.22v635.3a108.22,108.22,0,0,0,107.8-108.21V4283.61A108.23,108.23,0,0,0,3544.86,4175.39Zm-58.63,593.78c-3.34,77.84-46.78,116.55-94.82,134.61-121.55,40.79-247.58,17.24-286.64-95.6-.66-1.72-1.29-3.44-1.9-5.19q-2.62-7.42-4.85-15.31h59.13a121.08,121.08,0,0,1,73.92,24.71c39.08,29.95,104.46,21.65,125.2-4.38a0,0,0,0,0,0,0c12.32-13.19,20.84-31.22,22.07-47,1.26-16.41,1-73,.85-72.81V4559.77c.39-36.85,6.44-127.33-60.88-151.75-40.46-13.71-84.18-5.51-108.67,21.39-13.55,14.89-32.94,37.77-29.32,118.94,2.44,54.7,23.13,104.1,92.08,108,38.46,2.2,64,21.4,79.24,50.54a94.66,94.66,0,0,1,10.59,43.93H3254.45c-14,.43-19.7-.63-33.36-2.69-103.46-17-130.22-108.37-134.4-194.56-4.18-78,10.53-160.28,67.36-205.14,62.27-57.06,320.09-87.23,331.69,132C3487.24,4497.47,3486.57,4747.93,3486.23,4769.17Zm612.23-402.61a58.94,58.94,0,0,0-58.94-59h-124.4c-20.22,0-31.38.82-31.38.82-113.75,8-173.35,78.58-174.71,212.09-1.28,100.85,28.35,169.27,88.43,203.66,27.85,19.25,78.26,26.81,131.26,26.81h159.72c-9-68.43-47.05-89.33-89.68-91.36-32.62-1.55-68.9-.82-102.53-3.41-45.86-3.55-76.21-17.54-92-78.32-7.25-28-8.31-84.41,3.62-113,21.56-51.57,67.63-63.25,100.72-62.89h85.65a14.79,14.79,0,0,1,14.45,18.19c-6.34,26.1-26.17,61.06-52.93,69.11,0,0,0,0,0,0-3.75,1.86-29.16,3.65-39.67,3.65l-20.45,0h-4.45c-18.16.5-33.64,7.43-45.28,15.71-8.71,6.19-17.59,15-24.54,34.58-2.54,7.13-3.81,15-4.69,26.29,19,0,96.95.25,96.95.25s46.62-.74,55.39-1.94a23,23,0,0,0,4.28-.9c72.41-13.8,124.67-89.86,125.25-163,0-1.17,0-.3,0-2.49C4098.47,4399.81,4098.46,4384.41,4098.46,4366.56Z" transform="translate(-1844.64 -4175.39)"/></svg>