<svg id="Jungle_Favicon_01" xmlns="http://www.w3.org/2000/svg" viewBox="0 0 2746.67 2746.67"><defs><style>.cls-1{fill:#1d1d1b;}</style></defs><title>JUNGLE_Logo_Minimal_for_FAVICON_Black</title><g id="Cloud_Forest_Shapes"><path id="Cluod_05" class="cls-1" d="M2785.86,3352.7a304.87,304.87,0,0,0,39.18,26.35,150,150,0,0,1-204.19,42.7l-443.17-279.54a150,150,0,1,1,160.05-253.74l79.4,50.08a252.41,252.41,0,0,0-7.83,32.74,191.52,191.52,0,0,0-3.16,28.19c0,.44,0,.89,0,1.33,0,.14,0,.28,0,.41v.29a192.44,192.44,0,0,0,89.73,168.23l136.55,86.13Z" transform="translate(-1626.67 -1189)"/><path id="Cloud_04" class="cls-1" d="M3215.75,3263.26,3169.36,3234h0c11.11-32.4,14.71-69.72,14.71-108.35,0-118.38-96-214.36-214.36-214.36a213.51,213.51,0,0,0-141.54,53.39v0a174.85,174.85,0,0,0-327.74-20.87,172.9,172.9,0,0,0-12.34,41.46v0a111.27,111.27,0,0,0-2,17.56c0,.07,0,.15,0,.23a112.42,112.42,0,0,0,52.42,99L2675,3188.21l157.33,99.24.07.05a228.16,228.16,0,0,0,47.55,30h0l8.78,5.54,36.4,23,170.54,107.57a112.5,112.5,0,1,0,120-190.3Z" transform="translate(-1626.67 -1189)"/><path id="Cloud_03" class="cls-1" d="M2534,2531a229.65,229.65,0,0,1,151.72-103.26l-147.31-92.91c-26.1-16.47-51.76-24.12-75.64-24.12-34.89,0-66,16.33-89.1,45.39-19.35,24.3-28.67,63.44-26.26,92.17l-50.75-32a112.5,112.5,0,0,0-120,190.31L2504,2813a254.61,254.61,0,0,1,38.12-24.6c-.79-1.09-1.57-2.18-2.34-3.29A229.84,229.84,0,0,1,2534,2531Z" transform="translate(-1626.67 -1189)"/><path id="Cloud_02" class="cls-1" d="M3594.1,2962.3l-68.93-45c17.91-135.87-49.92-281.41-184.28-373.66-76.78-52.72-163.21-78.3-245.62-78.3-90.86,0-176.84,31.06-239.79,91.08l-46.89-29.58a150,150,0,0,0-184,235,256.94,256.94,0,0,1,35.92-2.51,254.72,254.72,0,0,1,197.61,94,294.27,294.27,0,0,1,406,272.39q0,23.11-1.59,44l24.22,15.37,120.69,73.33a175,175,0,0,0,186.72-296Z" transform="translate(-1626.67 -1189)"/><path id="Cloud_01" class="cls-1" d="M3873.75,2572.16a250,250,0,0,0-110.46-156.24l-102.75-64.81c16.06-19.69,28.4-43.42,36.39-71.11,53.18-184.19,10-332.57-173-451.89-79.38-51.77-166.82-76.37-247.29-76.37-95.46,0-181.12,34.6-231.94,99.48-85.37-65.83-166.6-94.72-238.76-94.72-85.15,0-157.68,40.2-209.55,107.35a316.1,316.1,0,0,0-25.9,39.07l-40.42-25.49a150,150,0,0,0-160,253.74L2869.19,2446c65.74-39.53,143.55-60.71,226.08-60.71a498.11,498.11,0,0,1,148.81,23,531.25,531.25,0,0,1,142.09,69.32c76.64,52.62,137.47,122.29,175.93,201.48,30.65,63.13,46.22,130.24,45.91,196.69l1,.67q10.41.89,20.89.88a250,250,0,0,0,243.83-305.21Z" transform="translate(-1626.67 -1189)"/></g><g id="Ring"><g id="Ellipse"><path class="cls-1" d="M3000,1389a1183,1183,0,0,1,236.68,23.84,1165.63,1165.63,0,0,1,419.2,176.43,1177.43,1177.43,0,0,1,425.33,516.41,1165.65,1165.65,0,0,1,68.28,220,1186.78,1186.78,0,0,1,0,473.36,1165.58,1165.58,0,0,1-176.43,419.21,1177.26,1177.26,0,0,1-516.41,425.32,1165.68,1165.68,0,0,1-220,68.29,1186.78,1186.78,0,0,1-473.36,0,1166.1,1166.1,0,0,1-419.2-176.43A1177.43,1177.43,0,0,1,1918.79,3019a1165.52,1165.52,0,0,1-68.28-220,1186.78,1186.78,0,0,1,0-473.36,1165.63,1165.63,0,0,1,176.43-419.2,1177.43,1177.43,0,0,1,516.41-425.33,1166.38,1166.38,0,0,1,220-68.28A1183,1183,0,0,1,3000,1389m0-200c-758.47,0-1373.33,614.86-1373.33,1373.33S2241.53,3935.67,3000,3935.67,4373.33,3320.8,4373.33,2562.33,3758.47,1189,3000,1189Z" transform="translate(-1626.67 -1189)"/></g></g></svg>