<svg xmlns="http://www.w3.org/2000/svg" viewBox="0 0 1447.48 519.38"><defs><style>.cls-1,.cls-2{fill:#171819;}.cls-2{font-size:180.78px;font-family:TitilliumWeb-Regular, Titillium Web;letter-spacing:-0.04em;}.cls-3{letter-spacing:-0.02em;}.cls-4{letter-spacing:-0.03em;}.cls-5{letter-spacing:-0.01em;}.cls-6{letter-spacing:-0.02em;}.cls-7{letter-spacing:-0.03em;}.cls-8{letter-spacing:-0.11em;}.cls-9{letter-spacing:-0.02em;}.cls-10{letter-spacing:-0.03em;}.cls-11{letter-spacing:-0.03em;}.cls-12{letter-spacing:-0.03em;}.cls-13{letter-spacing:-0.03em;}.cls-14{letter-spacing:-0.03em;}.cls-15{letter-spacing:-0.03em;}.cls-16{letter-spacing:0.01em;}.cls-17{letter-spacing:0em;}</style></defs><title>Temporary_logo_wordmark</title><g id="Logo_Update" data-name="Logo Update"><g id="NG-STARs"><path class="cls-1" d="M2363.05,4437.66V4150.54h81.31l87.19,246h6.29v-246h46.52v287.12h-79.64l-89.28-246.46h-5.86v246.46Z" transform="translate(-2356.35 -4150.19)"/><path class="cls-1" d="M2735.72,4327.84v-41.08h81.73v150.9h-96q-65.4,0-90.12-36.05c-16.49-24-24.73-57.07-24.73-108.35s8.45-88.65,25.36-112.12,46.17-30.81,87.81-30.81h97.66l-1.67,41.23h-91c-26.83,0-45.2,3.41-55.12,18.5s-14.88,43-14.88,83.83,4.68,64.34,14,79.85,26.67,22,55.16,22.84c8.58.26,36.38,0,47.33,0v-68.74Z" transform="translate(-2356.35 -4150.19)"/><path class="cls-1" d="M2843.16,4328.37v-41.5h99.05v41.5Z" transform="translate(-2356.35 -4150.19)"/><path class="cls-1" d="M3038.29,4191.27c-35.49,0-49.56,8.77-49.56,33.63,0,12.86,4.2,21,12.58,26.44s26.89,12.16,55.54,20.12,48.83,17.47,60.56,28.51,17.61,28.43,17.61,52.18q0,45.27-25.78,67.69c-17.18,15-40.59,17.82-70.21,17.82h-93.89l4.61-37.31s63.13-2.82,86.35-3.77c34.62-1.41,52-10.75,52-41.49q0-18-11.73-26.62t-52.82-18.86q-41.07-10.27-61.19-28.3c-13.41-12-20.12-30-20.12-56s8.45-45.61,25.36-58.89,36.63-16.24,66.53-16.24c21.52,0,94.63.35,94.63.35l-.41,41.49S3054.5,4191.27,3038.29,4191.27Z" transform="translate(-2356.35 -4150.19)"/><path class="cls-1" d="M3125.17,4192v-41.49h209.57V4192h-80.89v245.63H3206.9V4192Z" transform="translate(-2356.35 -4150.19)"/><path class="cls-1" d="M3425.46,4437.66V4336.5h-76.52l-48.81,101.16h-46.94l135.38-287.12H3472v287.12Zm-9.64-246.46-49.26,104.23h60.16l2.09-104.23Z" transform="translate(-2356.35 -4150.19)"/><path class="cls-1" d="M3544.85,4335.38v102.28h-46.53V4150.54h109q97.24,0,97.25,91.37,0,61.22-47,83L3705,4437.66h-51.13l-41.5-102.28Zm111.91-93.05q0-51.56-49.46-51.55h-62.45v104.37h63.29q25.16,0,36.89-14.47T3656.76,4242.33Z" transform="translate(-2356.35 -4150.19)"/><path class="cls-1" d="M3750.18,4310.51q-33,0-33,23.76,0,10.89,7.27,15.37t32.83,8.8q25.57,4.34,36,11.87t10.48,28.93q0,21.38-13.7,31.29c-9.12,6.62-21.84,7.13-39.54,7.13h-45.78l1.12-14.81s34.88-.28,46.06-.28,19.19.84,25.43-3.08,9.36-10.52,9.36-19.84-2.56-15.5-7.68-18.58-16.12-5.91-33-8.52-28.73-6.33-35.62-11.18-10.34-14-10.34-27.38,4.75-23.2,14.25-29.34,21.24-9.22,35.21-9.22h49.46l-.56,14.81S3762.47,4310.51,3750.18,4310.51Z" transform="translate(-2356.35 -4150.19)"/><text class="cls-2" transform="translate(0 467.86)">F<tspan class="cls-3" x="88.32" y="0">e</tspan><tspan class="cls-4" x="175.64" y="0">e</tspan><tspan class="cls-5" x="261.25" y="0">l </tspan><tspan class="cls-6" x="340.97" y="0">t</tspan><tspan class="cls-7" x="401.53" y="0">h</tspan><tspan class="cls-5" x="493.45" y="0">e </tspan><tspan class="cls-8" x="622.7" y="0">T</tspan><tspan class="cls-9" x="698.19" y="0">e</tspan><tspan class="cls-10" x="785.4" y="0">c</tspan><tspan class="cls-11" x="858.65" y="0">h</tspan><tspan class="cls-12" x="950.08" y="0">n</tspan><tspan class="cls-13" x="1042" y="0">o</tspan><tspan class="cls-14" x="1131.76" y="0">l</tspan><tspan class="cls-15" x="1167.91" y="0">o</tspan><tspan class="cls-16" x="1258.19" y="0">g</tspan><tspan class="cls-17" x="1352.3" y="0">y</tspan></text></g></g></svg>