<svg id="Logo_Update" data-name="Logo Update" xmlns="http://www.w3.org/2000/svg" viewBox="0 0 2463.53 2515.34"><defs><style>.cls-1{fill:none;stroke:#171819;stroke-linecap:round;stroke-linejoin:round;stroke-width:40px;}.cls-2{fill:#171819;}</style></defs><title>Temporary_logo_no_text</title><path id="G" class="cls-1" d="M3227.1,3400.09c-45.24,109-147.82,106.62-323.57,75.93-100.21-21.53-178.74-60.4-240.29-110.62v-865c.92-51.41,64-76.25,98.33-35.79,52.1,87.68,94.77,169,155.74,276,100.2,178.79,219,390.79,301.69,538.33C3241,3315.81,3241.86,3362.38,3227.1,3400.09ZM3998.41,1983.2l98.72-1.16a10,10,0,0,1,7.62,3.39l134,152.12a5,5,0,0,0,8.52-1.82l60.38-193.55a10,10,0,0,1,5.57-6.2l186.1-80.47a5,5,0,0,0,.9-8.67l-165.41-117.23a10,10,0,0,1-4.18-7.22l-19-201.85a5,5,0,0,0-8-3.54l-162.61,121.09a10,10,0,0,1-8.15,1.74l-197.86-44.28a5,5,0,0,0-5.83,6.48l64.93,192.07a10,10,0,0,1-.87,8.3l-42.44,71.71m47.56,109.09q14.25,38.88,25.9,80.55H3642c-132.67-290.66-432.52-350.39-704.27-310.64-108,19-192.47,56-258.64,105.28l174.57,307.72c73.38,133.64,168.71,307.26,241.29,439.43h0s0,0,0,0l0,0h0s0,0,0,0a.09.09,0,0,0,0,.06h0l.06.1,6.72,12.23h209.05c104.65,198.68,145.31,184,535.43,180.21,66.22.12,142.62.12,231,.12-11.71,439.24-172,824.29-609.65,991.37h0c-250.47,90.84-514.31,74.41-695.16,25.89h0c-594-176.48-701-689.18-693.21-1171.71.27-304.7,1.3-685.42,273.66-974.77,350.39-395.07,1268.61-438.87,1598,205" transform="translate(-2058.85 -1359.67)"/><g id="N"><path class="cls-2" d="M3889.33,2909.81c-28.21,301.14-145.49,538.67-398.27,672.74-15.68-95.33-58.62-145.65-117.72-256.12l-4.89-8.71c2.33,4.29-204.88-365.69-319.5-570.12-67.83-121-122.69-218.94-220.87-394.12-38.7-57.42-125.52-51.29-156.07,11.66-15.69,43.63-6.32,37.61-8.77,85.94V3579.9c-372.89-202.39-408.5-598.11-403.24-967.79-3.79-371.07,33.15-756.7,408.37-958.64,17.71,93.58,40.11,114.46,98.87,222.56,60.1,107.22,402.54,718.31,479.94,856.42,84.63,146.1,216.46,177.36,372.74,177.36Z" transform="translate(-2058.85 -1359.67)"/><path id="OOOO" class="cls-2" d="M3496.1,1656.16c371.62,216,383.2,576.78,393.23,723.09-2.26-.41-45.72,4.7-105.32-.82-148.78-13.78-287.91-158-284.62-328.58C3499.22,2058.85,3497.57,1671.47,3496.1,1656.16Z" transform="translate(-2058.85 -1359.67)"/></g></svg>