<svg xmlns="http://www.w3.org/2000/svg" xmlns:xlink="http://www.w3.org/1999/xlink" viewBox="0 0 4762.63 747.05"><defs><style>.cls-1{fill:url(#linear-gradient);}.cls-2{fill:#b98c41;}</style><linearGradient id="linear-gradient" x1="1823.24" y1="2626.47" x2="1823.24" y2="3373.53" gradientUnits="userSpaceOnUse"><stop offset="0.15" stop-color="#e5b267"/><stop offset="1" stop-color="#9c711a"/></linearGradient></defs><title>Pack_JUNGLE_EMPEROR</title><g id="Pack_Jungle_Emperor"><path id="JUNGLE_wordmark_gold" class="cls-1" d="M930.38,2626.47v419.94c0,42.15-20.27,63.22-61.6,63.22q-28.28,0-44.44-10.43h0c-14.73-9.5-22-25.48-22-47.93V2889.65h-.08A105.92,105.92,0,0,0,696.3,2995.58c0,.71,0,1.41,0,2.11a1.62,1.62,0,0,0,0,.22c0,.2,0,.41,0,.61v.14c1.31,53.12,3.37,103.51,6.28,110.16C722.07,3174.47,791,3202,870.4,3202c81.86,0,147.51-27.55,166.15-98.07,4-21.07,6.48-47,6.48-76.18V2739.36A112.89,112.89,0,0,0,930.38,2626.47Zm429.54,136.59v281.73c0,47.82-24.32,71.32-73,71.32s-72.94-23.5-72.94-71.32V2867.46a108.23,108.23,0,0,0-107.8-104.41v259.86c0,72.13,18.64,119.14,55.93,142.64,37.28,24.32,77,36.47,121.57,36.47,46.2,0,88.34-11.34,126.44-33.23a94.2,94.2,0,0,0,20.18-16.74c24.51-26.82,36.55-69.87,36.55-129.14V2871.27A108.22,108.22,0,0,0,1359.92,2763.06Zm346.08-4.37c-122.39,0-184,60.78-184,183.17v259.92h0a109.38,109.38,0,0,0,109.39-109.38V2920c.81-44.57,25.13-66.46,72.94-66.46s72.14,21.89,74.57,66.46v281.77a109.34,109.34,0,0,0,108.61-108.64V2941.86C1888.36,2819.47,1828.38,2758.69,1706,2758.69Zm690.51-132.22v635.3a108.22,108.22,0,0,0,107.8-108.21V2734.68A108.22,108.22,0,0,0,2396.51,2626.47Zm-58.62,593.78c-3.35,77.84-46.79,116.55-94.83,134.61-121.55,40.79-247.58,17.24-286.64-95.61-.66-1.71-1.29-3.43-1.9-5.18q-2.62-7.43-4.85-15.31h59.14a121,121,0,0,1,73.91,24.71c39.08,30,104.46,21.65,125.2-4.38a0,0,0,0,0,0,0c12.32-13.19,20.84-31.22,22.07-47,1.27-16.4,1-73,.85-72.8V3010.85c.39-36.85,6.44-127.33-60.88-151.75-40.46-13.71-84.18-5.51-108.67,21.39-13.55,14.89-32.94,37.77-29.32,118.94,2.45,54.7,23.13,104.1,92.08,108,38.46,2.2,64,21.4,79.24,50.53a94.73,94.73,0,0,1,10.59,43.94H2106.1c-14,.43-19.7-.63-33.36-2.69-103.46-17-130.22-108.37-134.4-194.56-4.18-78,10.53-160.29,67.37-205.15,62.26-57.05,320.08-87.22,331.68,132C2338.89,2948.55,2338.22,3199,2337.89,3220.25Zm612.22-402.61a59,59,0,0,0-58.93-59h-124.4c-20.23,0-31.39.83-31.39.83-113.74,8-173.34,78.58-174.71,212.09-1.28,100.85,28.35,169.27,88.43,203.66,27.85,19.25,78.26,26.81,131.26,26.81h159.72c-9-68.43-47.05-89.33-89.68-91.36-32.61-1.55-68.89-.82-102.53-3.41-45.86-3.55-76.21-17.54-92-78.33-7.25-27.94-8.31-84.4,3.62-112.94,21.56-51.57,67.63-63.25,100.72-62.89h85.65a14.8,14.8,0,0,1,14.46,18.19c-6.35,26.1-26.18,61.05-52.94,69.11h0c-3.75,1.86-29.16,3.65-39.67,3.65l-20.45,0h-4.45c-18.15.5-33.64,7.43-45.28,15.71-8.71,6.19-17.59,15-24.54,34.58-2.54,7.13-3.81,15-4.68,26.29,19,0,96.94.25,96.94.25s46.62-.74,55.39-1.94a22.85,22.85,0,0,0,4.28-.9c72.42-13.8,124.67-89.86,125.25-163,0-1.17,0-.31,0-2.49C2950.12,2850.89,2950.11,2835.49,2950.11,2817.64Z" transform="translate(-696.3 -2626.47)"/><path id="Emperor_wordmark" class="cls-2" d="M3231.74,2758.22h246.79l-3.82,35.71-5.1,51h-148l-8.93,85.45h135.83l-7.65,74H3305.08L3293,3116h147.95l-8.93,86.09H3185.19Zm532.49,0h93.1l-46.55,443.84h-86.09l23.59-221.92L3682,3140.84h-61.85l-32.53-158.79-23,220H3477.9l46.55-443.84h86.09l59.31,197.69Zm210.44,299.08-15.3,144.76h-98.85l46.55-443.84h225.12q13.38,0,23.59.64t15.94,7.65q12.75,12.12,9.57,38.26L4160.24,3005q-2.55,25.51-17.85,39.54-15.95,12.76-42.09,12.75Zm109-212.35H3997l-14,135.19h86.73Zm148.59-86.73H4479.1l-8.93,86.73H4322.22l-8.93,85.45h135.84l-7.66,74H4305.64L4293.53,3116h147.94l-8.92,86.09h-246.8Zm250.61,443.84L4525,2758.22H4741.2q11.48,0,21,.64a24,24,0,0,1,15.94,7q13.39,12.12,10.21,38.9l-16,155.6a70.28,70.28,0,0,1-5.73,23,57.8,57.8,0,0,1-11.48,16.58q-13.39,12.12-40.82,12.12h-18.49l65.68,185.57-.63,4.46H4655.11l-57.4-165.16-17.22,165.16ZM4607.28,2845l-11.48,110.32h86.09L4693.37,2845Zm535.37-58a104.68,104.68,0,0,1,1.27,22.95l-35.71,340.54a91.67,91.67,0,0,1-5.74,23c-1.7,3-3.41,5.85-5.1,8.61a29.68,29.68,0,0,1-6.38,7.33,88.68,88.68,0,0,1-7.65,5.74,28.37,28.37,0,0,1-8.93,3.83,55.56,55.56,0,0,1-11.48,2.55,111.1,111.1,0,0,1-12.11.63H4845.47q-14,0-22.31-3.18a32.29,32.29,0,0,1-15.31-9.57,20.5,20.5,0,0,1-4.78-7.33q-1.6-4.14-2.87-8.61a82.62,82.62,0,0,1-.64-23l35.71-340.54a74.17,74.17,0,0,1,5.1-22.95q2.55-4.46,5.1-8.61a30.27,30.27,0,0,1,6.38-7.34,93,93,0,0,1,7.65-5.74,28.42,28.42,0,0,1,9.57-3.82,44.35,44.35,0,0,1,10.84-2.55,111.08,111.08,0,0,1,12.12-.64h205.34q14,0,23,3.19A32.67,32.67,0,0,1,5135,2771a21.11,21.11,0,0,1,4.79,7.34Q5141.35,2782.47,5142.65,2786.92Zm-130.73,329,28.69-271H4930.29l-28.7,271Zm140.93,86.09,42.09-443.84h216.18q11.48,0,21.05.64a24.06,24.06,0,0,1,15.94,7q13.4,12.12,10.2,38.9l-15.94,155.6q-1.29,13.4-5.74,23a57.8,57.8,0,0,1-11.48,16.58q-13.39,12.12-40.81,12.12h-18.5l65.69,185.57-.64,4.46H5325l-57.39-165.16-17.22,165.16ZM5277.2,2845l-11.48,110.32h86.1L5363.29,2845Z" transform="translate(-696.3 -2626.47)"/></g></svg>