<svg id="Pack_Jungle_Wood" xmlns="http://www.w3.org/2000/svg" xmlns:xlink="http://www.w3.org/1999/xlink" viewBox="0 0 4002.67 747.05"><defs><style>.cls-1{fill:url(#linear-gradient);}.cls-2{fill:#0b4d98;}</style><linearGradient id="linear-gradient" x1="1823.24" y1="2626.47" x2="1823.24" y2="3373.53" gradientUnits="userSpaceOnUse"><stop offset="0.15" stop-color="#00a8d0"/><stop offset="1" stop-color="#0b4d98"/></linearGradient></defs><title>Pack_JUNGLE_WOOD</title><path id="JUNGLE_wordmark_blue" class="cls-1" d="M930.38,2626.47v419.94c0,42.15-20.27,63.22-61.6,63.22q-28.28,0-44.44-10.43h0c-14.73-9.5-22-25.48-22-47.93V2889.65h-.08A105.92,105.92,0,0,0,696.3,2995.58c0,.71,0,1.41,0,2.11a1.62,1.62,0,0,0,0,.22c0,.2,0,.41,0,.61v.14c1.31,53.12,3.37,103.51,6.28,110.16C722.07,3174.47,791,3202,870.4,3202c81.86,0,147.51-27.55,166.15-98.07,4-21.07,6.48-47,6.48-76.18V2739.36A112.89,112.89,0,0,0,930.38,2626.47Zm429.54,136.59v281.73c0,47.82-24.32,71.32-73,71.32s-72.94-23.5-72.94-71.32V2867.46a108.23,108.23,0,0,0-107.8-104.41v259.86c0,72.13,18.64,119.14,55.93,142.64,37.28,24.32,77,36.47,121.57,36.47,46.2,0,88.34-11.34,126.44-33.23a94.2,94.2,0,0,0,20.18-16.74c24.51-26.82,36.55-69.87,36.55-129.14V2871.27A108.22,108.22,0,0,0,1359.92,2763.06Zm346.08-4.37c-122.39,0-184,60.78-184,183.17v259.92h0a109.38,109.38,0,0,0,109.39-109.38V2920c.81-44.57,25.13-66.46,72.94-66.46s72.14,21.89,74.57,66.46v281.77a109.34,109.34,0,0,0,108.61-108.64V2941.86C1888.36,2819.47,1828.38,2758.69,1706,2758.69Zm690.51-132.22v635.3a108.22,108.22,0,0,0,107.8-108.21V2734.68A108.22,108.22,0,0,0,2396.51,2626.47Zm-58.62,593.78c-3.35,77.84-46.79,116.55-94.83,134.61-121.55,40.79-247.58,17.24-286.64-95.61-.66-1.71-1.29-3.43-1.9-5.18q-2.62-7.43-4.85-15.31h59.14a121,121,0,0,1,73.91,24.71c39.08,30,104.46,21.65,125.2-4.38a0,0,0,0,0,0,0c12.32-13.19,20.84-31.22,22.07-47,1.27-16.4,1-73,.85-72.8V3010.85c.39-36.85,6.44-127.33-60.88-151.75-40.46-13.71-84.18-5.51-108.67,21.39-13.55,14.89-32.94,37.77-29.32,118.94,2.45,54.7,23.13,104.1,92.08,108,38.46,2.2,64,21.4,79.24,50.53a94.73,94.73,0,0,1,10.59,43.94H2106.1c-14,.43-19.7-.63-33.36-2.69-103.46-17-130.22-108.37-134.4-194.56-4.18-78,10.53-160.29,67.37-205.15,62.26-57.05,320.08-87.22,331.68,132C2338.89,2948.55,2338.22,3199,2337.89,3220.25Zm612.22-402.61a59,59,0,0,0-58.93-59h-124.4c-20.23,0-31.39.83-31.39.83-113.74,8-173.34,78.58-174.71,212.09-1.28,100.85,28.35,169.27,88.43,203.66,27.85,19.25,78.26,26.81,131.26,26.81h159.72c-9-68.43-47.05-89.33-89.68-91.36-32.61-1.55-68.89-.82-102.53-3.41-45.86-3.55-76.21-17.54-92-78.33-7.25-27.94-8.31-84.4,3.62-112.94,21.56-51.57,67.63-63.25,100.72-62.89h85.65a14.8,14.8,0,0,1,14.46,18.19c-6.35,26.1-26.18,61.05-52.94,69.11h0c-3.75,1.86-29.16,3.65-39.67,3.65l-20.45,0h-4.45c-18.15.5-33.64,7.43-45.28,15.71-8.71,6.19-17.59,15-24.54,34.58-2.54,7.13-3.81,15-4.68,26.29,19,0,96.94.25,96.94.25s46.62-.74,55.39-1.94a22.85,22.85,0,0,0,4.28-.9c72.42-13.8,124.67-89.86,125.25-163,0-1.17,0-.31,0-2.49C2950.12,2850.89,2950.11,2835.49,2950.11,2817.64Z" transform="translate(-696.3 -2626.47)"/><path id="Wood_wordmark" class="cls-2" d="M3653.32,2758.64l-91.74,443.42h-93l-52.88-197.5L3315,3202.06h-86l7.65-443.42h105.12l-2.55,219.8,65.62-158.64h61.8l32.49,160.55,51-221.71Zm335.12,28.28a104.68,104.68,0,0,1,1.27,22.95L3954,3150.41a91.22,91.22,0,0,1-5.73,23c-1.7,3-3.41,5.85-5.1,8.61a29.63,29.63,0,0,1-6.37,7.33,90.14,90.14,0,0,1-7.64,5.74,28.41,28.41,0,0,1-8.92,3.83,55.76,55.76,0,0,1-11.47,2.55,111.1,111.1,0,0,1-12.11.63H3691.55q-14,0-22.3-3.18a32.23,32.23,0,0,1-15.29-9.57,20.5,20.5,0,0,1-4.78-7.33c-1.07-2.76-2-5.63-2.87-8.61a83,83,0,0,1-.63-23l35.67-340.54a74.17,74.17,0,0,1,5.1-22.95q2.53-4.46,5.1-8.61a30,30,0,0,1,6.37-7.34,92.89,92.89,0,0,1,7.64-5.74,28.36,28.36,0,0,1,9.56-3.82,44.27,44.27,0,0,1,10.83-2.55,110.7,110.7,0,0,1,12.1-.64H3943.2q14,0,22.94,3.19a32.7,32.7,0,0,1,14.65,9.56,21.22,21.22,0,0,1,4.78,7.34Q3987.14,2782.47,3988.44,2786.92Zm-130.61,329,28.67-271H3776.28l-28.67,271Zm484.83-329a104.07,104.07,0,0,1,1.28,22.95l-35.68,340.54a91.65,91.65,0,0,1-5.73,23q-2.56,4.47-5.1,8.61a29.63,29.63,0,0,1-6.37,7.33,88.68,88.68,0,0,1-7.65,5.74,28.26,28.26,0,0,1-8.91,3.83,55.76,55.76,0,0,1-11.47,2.55,111.23,111.23,0,0,1-12.11.63H4045.78q-14,0-22.3-3.18a32.19,32.19,0,0,1-15.29-9.57,20.5,20.5,0,0,1-4.78-7.33c-1.07-2.76-2-5.63-2.87-8.61a83.39,83.39,0,0,1-.64-23l35.68-340.54a74.17,74.17,0,0,1,5.1-22.95q2.54-4.46,5.1-8.61a30,30,0,0,1,6.37-7.34,91.22,91.22,0,0,1,7.64-5.74,28.36,28.36,0,0,1,9.56-3.82,44.27,44.27,0,0,1,10.83-2.55,110.7,110.7,0,0,1,12.1-.64h205.15q14,0,22.94,3.19A32.7,32.7,0,0,1,4335,2771a21.22,21.22,0,0,1,4.78,7.34C4340.85,2781.08,4341.81,2784,4342.66,2786.92Zm-130.6,329,28.67-271H4130.51l-28.67,271Zm485.47-329q-1.27-4.46-2.87-8.61a21.05,21.05,0,0,0-4.77-7.34,32.73,32.73,0,0,0-14.66-9.56q-8.92-3.19-22.93-3.19H4394.91l-8.33,86.73h207.1l-26.76,271H4456.71l10.19-93.1,2.55-26.79,6.86-65h-98.89l-.35,3.19-27.4,267.83h256.12a110.91,110.91,0,0,0,12.1-.63,55.47,55.47,0,0,0,11.47-2.55,28.31,28.31,0,0,0,8.92-3.83,88.68,88.68,0,0,0,7.65-5.74,30.05,30.05,0,0,0,6.37-7.33q2.53-4.14,5.09-8.61a91.67,91.67,0,0,0,5.74-23l34.4-330.33,1.28-10.21A104.69,104.69,0,0,0,4697.53,2786.92Z" transform="translate(-696.3 -2626.47)"/></svg>