<svg id="Pack_Jungle_In" xmlns="http://www.w3.org/2000/svg" xmlns:xlink="http://www.w3.org/1999/xlink" viewBox="0 0 3032.55 747.05"><defs><style>.cls-1{fill:url(#linear-gradient);}.cls-2{fill:#0b4d98;}</style><linearGradient id="linear-gradient" x1="1823.24" y1="2626.47" x2="1823.24" y2="3373.53" gradientUnits="userSpaceOnUse"><stop offset="0.15" stop-color="#00a8d0"/><stop offset="1" stop-color="#0b4d98"/></linearGradient></defs><title>Pack_JUNGLE_IN</title><path id="JUNGLE_wordmark_blue" class="cls-1" d="M930.38,2626.47v419.94c0,42.15-20.27,63.22-61.6,63.22q-28.28,0-44.44-10.43h0c-14.73-9.5-22-25.48-22-47.93V2889.65h-.08A105.92,105.92,0,0,0,696.3,2995.58c0,.71,0,1.41,0,2.11a1.62,1.62,0,0,0,0,.22c0,.2,0,.41,0,.61v.14c1.31,53.12,3.37,103.51,6.28,110.16C722.07,3174.47,791,3202,870.4,3202c81.86,0,147.51-27.55,166.15-98.07,4-21.07,6.48-47,6.48-76.18V2739.36A112.89,112.89,0,0,0,930.38,2626.47Zm429.54,136.59v281.73c0,47.82-24.32,71.32-73,71.32s-72.94-23.5-72.94-71.32V2867.46a108.23,108.23,0,0,0-107.8-104.41v259.86c0,72.13,18.64,119.14,55.93,142.64,37.28,24.32,77,36.47,121.57,36.47,46.2,0,88.34-11.34,126.44-33.23a94.2,94.2,0,0,0,20.18-16.74c24.51-26.82,36.55-69.87,36.55-129.14V2871.27A108.22,108.22,0,0,0,1359.92,2763.06Zm346.08-4.37c-122.39,0-184,60.78-184,183.17v259.92h0a109.38,109.38,0,0,0,109.39-109.38V2920c.81-44.57,25.13-66.46,72.94-66.46s72.14,21.89,74.57,66.46v281.77a109.34,109.34,0,0,0,108.61-108.64V2941.86C1888.36,2819.47,1828.38,2758.69,1706,2758.69Zm690.51-132.22v635.3a108.22,108.22,0,0,0,107.8-108.21V2734.68A108.22,108.22,0,0,0,2396.51,2626.47Zm-58.62,593.78c-3.35,77.84-46.79,116.55-94.83,134.61-121.55,40.79-247.58,17.24-286.64-95.61-.66-1.71-1.29-3.43-1.9-5.18q-2.62-7.43-4.85-15.31h59.14a121,121,0,0,1,73.91,24.71c39.08,30,104.46,21.65,125.2-4.38a0,0,0,0,0,0,0c12.32-13.19,20.84-31.22,22.07-47,1.27-16.4,1-73,.85-72.8V3010.85c.39-36.85,6.44-127.33-60.88-151.75-40.46-13.71-84.18-5.51-108.67,21.39-13.55,14.89-32.94,37.77-29.32,118.94,2.45,54.7,23.13,104.1,92.08,108,38.46,2.2,64,21.4,79.24,50.53a94.73,94.73,0,0,1,10.59,43.94H2106.1c-14,.43-19.7-.63-33.36-2.69-103.46-17-130.22-108.37-134.4-194.56-4.18-78,10.53-160.29,67.37-205.15,62.26-57.05,320.08-87.22,331.68,132C2338.89,2948.55,2338.22,3199,2337.89,3220.25Zm612.22-402.61a59,59,0,0,0-58.93-59h-124.4c-20.23,0-31.39.83-31.39.83-113.74,8-173.34,78.58-174.71,212.09-1.28,100.85,28.35,169.27,88.43,203.66,27.85,19.25,78.26,26.81,131.26,26.81h159.72c-9-68.43-47.05-89.33-89.68-91.36-32.61-1.55-68.89-.82-102.53-3.41-45.86-3.55-76.21-17.54-92-78.33-7.25-27.94-8.31-84.4,3.62-112.94,21.56-51.57,67.63-63.25,100.72-62.89h85.65a14.8,14.8,0,0,1,14.46,18.19c-6.35,26.1-26.18,61.05-52.94,69.11h0c-3.75,1.86-29.16,3.65-39.67,3.65l-20.45,0h-4.45c-18.15.5-33.64,7.43-45.28,15.71-8.71,6.19-17.59,15-24.54,34.58-2.54,7.13-3.81,15-4.68,26.29,19,0,96.94.25,96.94.25s46.62-.74,55.39-1.94a22.85,22.85,0,0,0,4.28-.9c72.42-13.8,124.67-89.86,125.25-163,0-1.17,0-.31,0-2.49C2950.12,2850.89,2950.11,2835.49,2950.11,2817.64Z" transform="translate(-696.3 -2626.47)"/><path id="In_wordmark" class="cls-2" d="M3304.77,3202.06H3194.45l46.28-443.84h110Zm301-209.8,24.23-234h98.85l-46.56,443.84H3596.2l-125-234.67-24.87,234.67h-96.29l46.55-443.84h85.45Z" transform="translate(-696.3 -2626.47)"/></svg>